<?xml version="1.0" encoding="us-ascii" standalone="no"?><svg xmlns="http://www.w3.org/2000/svg" xmlns:xlink="http://www.w3.org/1999/xlink" contentStyleType="text/css" height="866px" preserveAspectRatio="none" style="width:3224px;height:866px;background:#FFFFFF;" version="1.1" viewBox="0 0 3224 866" width="3224px" zoomAndPan="magnify"><defs/><g><!--class src.dl_solver.dl_solver.album_transforms.AlbumTransforms--><g id="elem_src.dl_solver.dl_solver.album_transforms.AlbumTransforms"><rect codeLine="2" fill="#F1F1F1" height="80.5938" id="src.dl_solver.dl_solver.album_transforms.AlbumTransforms" rx="2.5" ry="2.5" style="stroke:#181818;stroke-width:0.5;" width="233" x="637.5" y="64.04"/><ellipse cx="689.25" cy="80.04" fill="#ADD1B2" rx="11" ry="11" style="stroke:#181818;stroke-width:1.0;"/><path d="M692.2188,85.6806 Q691.6406,85.9775 691,86.1181 Q690.3594,86.2744 689.6563,86.2744 Q687.1563,86.2744 685.8281,84.6338 Q684.5156,82.9775 684.5156,79.8525 Q684.5156,76.7275 685.8281,75.0713 Q687.1563,73.415 689.6563,73.415 Q690.3594,73.415 691,73.5713 Q691.6563,73.7275 692.2188,74.0244 L692.2188,76.7431 Q691.5938,76.165 691,75.8994 Q690.4063,75.6181 689.7813,75.6181 Q688.4375,75.6181 687.75,76.6963 Q687.0625,77.7588 687.0625,79.8525 Q687.0625,81.9463 687.75,83.0244 Q688.4375,84.0869 689.7813,84.0869 Q690.4063,84.0869 691,83.8213 Q691.5938,83.54 692.2188,82.9619 L692.2188,85.6806 Z " fill="#000000"/><text fill="#000000" font-family="sans-serif" font-size="14" lengthAdjust="spacing" textLength="121" x="709.75" y="84.8867">AlbumTransforms</text><line style="stroke:#181818;stroke-width:0.5;" x1="638.5" x2="869.5" y1="96.04" y2="96.04"/><text fill="#000000" font-family="sans-serif" font-size="14" lengthAdjust="spacing" textLength="221" x="643.5" y="113.0351">train_augmentations : Compose</text><text fill="#000000" font-family="sans-serif" font-size="14" lengthAdjust="spacing" textLength="200" x="643.5" y="129.332">transforms : ReplayCompose</text><line style="stroke:#181818;stroke-width:0.5;" x1="638.5" x2="869.5" y1="136.6338" y2="136.6338"/></g><!--class src.dl_solver.dl_solver.config.Config--><g id="elem_src.dl_solver.dl_solver.config.Config"><rect codeLine="6" fill="#F1F1F1" height="276.1563" id="src.dl_solver.dl_solver.config.Config" rx="2.5" ry="2.5" style="stroke:#181818;stroke-width:0.5;" width="1158" x="1171" y="278.67"/><ellipse cx="1723.75" cy="294.67" fill="#ADD1B2" rx="11" ry="11" style="stroke:#181818;stroke-width:1.0;"/><path d="M1726.7188,300.3106 Q1726.1406,300.6075 1725.5,300.7481 Q1724.8594,300.9044 1724.1563,300.9044 Q1721.6563,300.9044 1720.3281,299.2638 Q1719.0156,297.6075 1719.0156,294.4825 Q1719.0156,291.3575 1720.3281,289.7013 Q1721.6563,288.045 1724.1563,288.045 Q1724.8594,288.045 1725.5,288.2013 Q1726.1563,288.3575 1726.7188,288.6544 L1726.7188,291.3731 Q1726.0938,290.795 1725.5,290.5294 Q1724.9063,290.2481 1724.2813,290.2481 Q1722.9375,290.2481 1722.25,291.3263 Q1721.5625,292.3888 1721.5625,294.4825 Q1721.5625,296.5763 1722.25,297.6544 Q1722.9375,298.7169 1724.2813,298.7169 Q1724.9063,298.7169 1725.5,298.4513 Q1726.0938,298.17 1726.7188,297.5919 L1726.7188,300.3106 Z " fill="#000000"/><text fill="#000000" font-family="sans-serif" font-size="14" lengthAdjust="spacing" textLength="44" x="1744.25" y="299.5167">Config</text><line style="stroke:#181818;stroke-width:0.5;" x1="1172" x2="2328" y1="310.67" y2="310.67"/><text fill="#000000" font-family="sans-serif" font-size="14" lengthAdjust="spacing" textLength="1146" x="1177" y="327.6651">active_callbacks : Dict[Literal['ModelCheckpoint', 'TQDMProgressBar', 'EarlyStopping', 'BatchSizeFinder', 'OptunaPruning', 'LearningRateMonitor', 'ModelSummary'], bool]</text><text fill="#000000" font-family="sans-serif" font-size="14" lengthAdjust="spacing" textLength="166" x="1177" y="343.962">from_ckpt : Optional[str]</text><text fill="#000000" font-family="sans-serif" font-size="14" lengthAdjust="spacing" textLength="106" x="1177" y="360.2589">is_debug : bool</text><text fill="#000000" font-family="sans-serif" font-size="14" lengthAdjust="spacing" textLength="148" x="1177" y="376.5557">is_fast_dev_run : bool</text><text fill="#000000" font-family="sans-serif" font-size="14" lengthAdjust="spacing" textLength="88" x="1177" y="392.8526">is_gpu : bool</text><text fill="#000000" font-family="sans-serif" font-size="14" lengthAdjust="spacing" textLength="125" x="1177" y="409.1495">is_multiproc : bool</text><text fill="#000000" font-family="sans-serif" font-size="14" lengthAdjust="spacing" textLength="110" x="1177" y="425.4464">is_optuna : bool</text><text fill="#000000" font-family="sans-serif" font-size="14" lengthAdjust="spacing" textLength="117" x="1177" y="441.7432">max_epochs : int</text><text fill="#000000" font-family="sans-serif" font-size="14" lengthAdjust="spacing" textLength="92" x="1177" y="458.0401">mlflow_config</text><text fill="#000000" font-family="sans-serif" font-size="14" lengthAdjust="spacing" textLength="190" x="1177" y="474.337">num_workers : Optional[int]</text><text fill="#000000" font-family="sans-serif" font-size="14" lengthAdjust="spacing" textLength="39" x="1177" y="490.6339">paths</text><text fill="#000000" font-family="sans-serif" font-size="14" lengthAdjust="spacing" textLength="130" x="1177" y="506.9307">piecemaker_config</text><text fill="#000000" font-family="sans-serif" font-size="14" lengthAdjust="spacing" textLength="127" x="1177" y="523.2276">pin_memory : bool</text><text fill="#000000" font-family="sans-serif" font-size="14" lengthAdjust="spacing" textLength="99" x="1177" y="539.5245">verbose : bool</text><line style="stroke:#181818;stroke-width:0.5;" x1="1172" x2="2328" y1="546.8263" y2="546.8263"/></g><!--class src.dl_solver.dl_solver.config.HyperParameters--><g id="elem_src.dl_solver.dl_solver.config.HyperParameters"><rect codeLine="22" fill="#F1F1F1" height="162.0781" id="src.dl_solver.dl_solver.config.HyperParameters" rx="2.5" ry="2.5" style="stroke:#181818;stroke-width:0.5;" width="228" x="908" y="335.71"/><ellipse cx="958.25" cy="351.71" fill="#ADD1B2" rx="11" ry="11" style="stroke:#181818;stroke-width:1.0;"/><path d="M961.2188,357.3506 Q960.6406,357.6475 960,357.7881 Q959.3594,357.9444 958.6563,357.9444 Q956.1563,357.9444 954.8281,356.3038 Q953.5156,354.6475 953.5156,351.5225 Q953.5156,348.3975 954.8281,346.7413 Q956.1563,345.085 958.6563,345.085 Q959.3594,345.085 960,345.2413 Q960.6563,345.3975 961.2188,345.6944 L961.2188,348.4131 Q960.5938,347.835 960,347.5694 Q959.4063,347.2881 958.7813,347.2881 Q957.4375,347.2881 956.75,348.3663 Q956.0625,349.4288 956.0625,351.5225 Q956.0625,353.6163 956.75,354.6944 Q957.4375,355.7569 958.7813,355.7569 Q959.4063,355.7569 960,355.4913 Q960.5938,355.21 961.2188,354.6319 L961.2188,357.3506 Z " fill="#000000"/><text fill="#000000" font-family="sans-serif" font-size="14" lengthAdjust="spacing" textLength="119" x="978.75" y="356.5567">HyperParameters</text><line style="stroke:#181818;stroke-width:0.5;" x1="909" x2="1135" y1="367.71" y2="367.71"/><text fill="#000000" font-family="sans-serif" font-size="14" lengthAdjust="spacing" textLength="104" x="914" y="384.7051">batch_size : int</text><text fill="#000000" font-family="sans-serif" font-size="14" lengthAdjust="spacing" textLength="131" x="914" y="401.002">learning_rate : float</text><text fill="#000000" font-family="sans-serif" font-size="14" lengthAdjust="spacing" textLength="120" x="914" y="417.2989">num_epochs : int</text><text fill="#000000" font-family="sans-serif" font-size="14" lengthAdjust="spacing" textLength="200" x="914" y="433.5957">puzzle_shape : Tuple[int, int]</text><text fill="#000000" font-family="sans-serif" font-size="14" lengthAdjust="spacing" textLength="183" x="914" y="449.8926">rotation_loss_weight : float</text><text fill="#000000" font-family="sans-serif" font-size="14" lengthAdjust="spacing" textLength="216" x="914" y="466.1895">segment_shape : Tuple[int, int]</text><text fill="#000000" font-family="sans-serif" font-size="14" lengthAdjust="spacing" textLength="136" x="914" y="482.4864">weight_decay : float</text><line style="stroke:#181818;stroke-width:0.5;" x1="909" x2="1135" y1="489.7881" y2="489.7881"/></g><!--class src.dl_solver.dl_solver.jigsaw_dataset.JigsawDataset--><g id="elem_src.dl_solver.dl_solver.jigsaw_dataset.JigsawDataset"><rect codeLine="31" fill="#F1F1F1" height="259.8594" id="src.dl_solver.dl_solver.jigsaw_dataset.JigsawDataset" rx="2.5" ry="2.5" style="stroke:#181818;stroke-width:0.5;" width="724" x="7" y="286.82"/><ellipse cx="316.75" cy="302.82" fill="#ADD1B2" rx="11" ry="11" style="stroke:#181818;stroke-width:1.0;"/><path d="M319.7188,308.4606 Q319.1406,308.7575 318.5,308.8981 Q317.8594,309.0544 317.1563,309.0544 Q314.6563,309.0544 313.3281,307.4138 Q312.0156,305.7575 312.0156,302.6325 Q312.0156,299.5075 313.3281,297.8513 Q314.6563,296.195 317.1563,296.195 Q317.8594,296.195 318.5,296.3513 Q319.1563,296.5075 319.7188,296.8044 L319.7188,299.5231 Q319.0938,298.945 318.5,298.6794 Q317.9063,298.3981 317.2813,298.3981 Q315.9375,298.3981 315.25,299.4763 Q314.5625,300.5388 314.5625,302.6325 Q314.5625,304.7263 315.25,305.8044 Q315.9375,306.8669 317.2813,306.8669 Q317.9063,306.8669 318.5,306.6013 Q319.0938,306.32 319.7188,305.7419 L319.7188,308.4606 Z " fill="#000000"/><text fill="#000000" font-family="sans-serif" font-size="14" lengthAdjust="spacing" textLength="96" x="337.25" y="307.6667">JigsawDataset</text><line style="stroke:#181818;stroke-width:0.5;" x1="8" x2="730" y1="318.82" y2="318.82"/><text fill="#000000" font-family="sans-serif" font-size="14" lengthAdjust="spacing" textLength="144" x="13" y="335.8151">IMGNET_STATS : dict</text><text fill="#000000" font-family="sans-serif" font-size="14" lengthAdjust="spacing" textLength="87" x="13" y="352.112">csv_file_path</text><text fill="#000000" font-family="sans-serif" font-size="14" lengthAdjust="spacing" textLength="120" x="13" y="368.4089">dataset_dir : Path</text><text fill="#000000" font-family="sans-serif" font-size="14" lengthAdjust="spacing" textLength="101" x="13" y="384.7057">df : DataFrame</text><text fill="#000000" font-family="sans-serif" font-size="14" lengthAdjust="spacing" textLength="155" x="13" y="401.0026">filtered_df : DataFrame</text><text fill="#000000" font-family="sans-serif" font-size="14" lengthAdjust="spacing" textLength="91" x="13" y="417.2995">is_train : bool</text><text fill="#000000" font-family="sans-serif" font-size="14" lengthAdjust="spacing" textLength="200" x="13" y="433.5964">puzzle_shape : Tuple[int, int]</text><text fill="#000000" font-family="sans-serif" font-size="14" lengthAdjust="spacing" textLength="200" x="13" y="449.8932">split : Literal['train', 'val', 'test']</text><text fill="#000000" font-family="sans-serif" font-size="14" lengthAdjust="spacing" textLength="74" x="13" y="466.1901">transforms</text><line style="stroke:#181818;stroke-width:0.5;" x1="8" x2="730" y1="473.4919" y2="473.4919"/><text fill="#000000" font-family="sans-serif" font-size="14" lengthAdjust="spacing" textLength="303" x="13" y="490.487">get_max_segment_shape() -&gt; Tuple[int, int]</text><text fill="#000000" font-family="sans-serif" font-size="14" lengthAdjust="spacing" textLength="300" x="13" y="506.7839">get_min_segment_shape() -&gt; Tuple[int, int]</text><text fill="#000000" font-family="sans-serif" font-size="14" lengthAdjust="spacing" textLength="712" x="13" y="523.0807">plot_sample(idx: Optional[int], pieces_and_labels: Optional[Tuple[torch.Tensor, torch.Tensor]]) -&gt; None</text><text fill="#000000" font-family="sans-serif" font-size="14" lengthAdjust="spacing" textLength="124" x="13" y="539.3776">save_df() -&gt; None</text></g><!--class src.dl_solver.dl_solver.lit_datamodule.LitJigsawDatamodule--><g id="elem_src.dl_solver.dl_solver.lit_datamodule.LitJigsawDatamodule"><rect codeLine="46" fill="#F1F1F1" height="227.2656" id="src.dl_solver.dl_solver.lit_datamodule.LitJigsawDatamodule" rx="2.5" ry="2.5" style="stroke:#181818;stroke-width:0.5;" width="236" x="610" y="631.82"/><ellipse cx="653.35" cy="647.82" fill="#ADD1B2" rx="11" ry="11" style="stroke:#181818;stroke-width:1.0;"/><path d="M656.3188,653.4606 Q655.7406,653.7575 655.1,653.8981 Q654.4594,654.0544 653.7563,654.0544 Q651.2563,654.0544 649.9281,652.4138 Q648.6156,650.7575 648.6156,647.6325 Q648.6156,644.5075 649.9281,642.8513 Q651.2563,641.195 653.7563,641.195 Q654.4594,641.195 655.1,641.3513 Q655.7563,641.5075 656.3188,641.8044 L656.3188,644.5231 Q655.6938,643.945 655.1,643.6794 Q654.5063,643.3981 653.8813,643.3981 Q652.5375,643.3981 651.85,644.4763 Q651.1625,645.5388 651.1625,647.6325 Q651.1625,649.7263 651.85,650.8044 Q652.5375,651.8669 653.8813,651.8669 Q654.5063,651.8669 655.1,651.6013 Q655.6938,651.32 656.3188,650.7419 L656.3188,653.4606 Z " fill="#000000"/><text fill="#000000" font-family="sans-serif" font-size="14" lengthAdjust="spacing" textLength="141" x="673.65" y="652.6667">LitJigsawDatamodule</text><line style="stroke:#181818;stroke-width:0.5;" x1="611" x2="845" y1="663.82" y2="663.82"/><text fill="#000000" font-family="sans-serif" font-size="14" lengthAdjust="spacing" textLength="42" x="616" y="680.8151">config</text><text fill="#000000" font-family="sans-serif" font-size="14" lengthAdjust="spacing" textLength="60" x="616" y="697.112">hparams</text><text fill="#000000" font-family="sans-serif" font-size="14" lengthAdjust="spacing" textLength="76" x="616" y="713.4089">jigsaw_test</text><text fill="#000000" font-family="sans-serif" font-size="14" lengthAdjust="spacing" textLength="79" x="616" y="729.7057">jigsaw_train</text><text fill="#000000" font-family="sans-serif" font-size="14" lengthAdjust="spacing" textLength="67" x="616" y="746.0026">jigsaw_val</text><text fill="#000000" font-family="sans-serif" font-size="14" lengthAdjust="spacing" textLength="74" x="616" y="762.2995">transforms</text><line style="stroke:#181818;stroke-width:0.5;" x1="611" x2="845" y1="769.6013" y2="769.6013"/><text fill="#000000" font-family="sans-serif" font-size="14" lengthAdjust="spacing" textLength="163" x="616" y="786.5964">prepare_data() -&gt; None</text><text fill="#000000" font-family="sans-serif" font-size="14" lengthAdjust="spacing" textLength="183" x="616" y="802.8932">setup(stage: Optional[str])</text><text fill="#000000" font-family="sans-serif" font-size="14" lengthAdjust="spacing" textLength="221" x="616" y="819.1901">test_dataloader() -&gt; DataLoader</text><text fill="#000000" font-family="sans-serif" font-size="14" lengthAdjust="spacing" textLength="224" x="616" y="835.487">train_dataloader() -&gt; DataLoader</text><text fill="#000000" font-family="sans-serif" font-size="14" lengthAdjust="spacing" textLength="212" x="616" y="851.7839">val_dataloader() -&gt; DataLoader</text></g><!--class src.dl_solver.dl_solver.lit_module.LitJigsawModule--><g id="elem_src.dl_solver.dl_solver.lit_module.LitJigsawModule"><rect codeLine="59" fill="#F1F1F1" height="210.9688" id="src.dl_solver.dl_solver.lit_module.LitJigsawModule" rx="2.5" ry="2.5" style="stroke:#181818;stroke-width:0.5;" width="607" x="1200.5" y="639.97"/><ellipse cx="1445.75" cy="655.97" fill="#ADD1B2" rx="11" ry="11" style="stroke:#181818;stroke-width:1.0;"/><path d="M1448.7188,661.6106 Q1448.1406,661.9075 1447.5,662.0481 Q1446.8594,662.2044 1446.1563,662.2044 Q1443.6563,662.2044 1442.3281,660.5638 Q1441.0156,658.9075 1441.0156,655.7825 Q1441.0156,652.6575 1442.3281,651.0013 Q1443.6563,649.345 1446.1563,649.345 Q1446.8594,649.345 1447.5,649.5013 Q1448.1563,649.6575 1448.7188,649.9544 L1448.7188,652.6731 Q1448.0938,652.095 1447.5,651.8294 Q1446.9063,651.5481 1446.2813,651.5481 Q1444.9375,651.5481 1444.25,652.6263 Q1443.5625,653.6888 1443.5625,655.7825 Q1443.5625,657.8763 1444.25,658.9544 Q1444.9375,660.0169 1446.2813,660.0169 Q1446.9063,660.0169 1447.5,659.7513 Q1448.0938,659.47 1448.7188,658.8919 L1448.7188,661.6106 Z " fill="#000000"/><text fill="#000000" font-family="sans-serif" font-size="14" lengthAdjust="spacing" textLength="108" x="1466.25" y="660.8167">LitJigsawModule</text><line style="stroke:#181818;stroke-width:0.5;" x1="1201.5" x2="1806.5" y1="671.97" y2="671.97"/><text fill="#000000" font-family="sans-serif" font-size="14" lengthAdjust="spacing" textLength="42" x="1206.5" y="688.9651">config</text><text fill="#000000" font-family="sans-serif" font-size="14" lengthAdjust="spacing" textLength="197" x="1206.5" y="705.262">cross_entropy_loss : Module</text><text fill="#000000" font-family="sans-serif" font-size="14" lengthAdjust="spacing" textLength="60" x="1206.5" y="721.5589">hparams</text><text fill="#000000" font-family="sans-serif" font-size="14" lengthAdjust="spacing" textLength="107" x="1206.5" y="737.8557">model : Module</text><text fill="#000000" font-family="sans-serif" font-size="14" lengthAdjust="spacing" textLength="129" x="1206.5" y="754.1526">mse_loss : Module</text><line style="stroke:#181818;stroke-width:0.5;" x1="1201.5" x2="1806.5" y1="761.4544" y2="761.4544"/><text fill="#000000" font-family="sans-serif" font-size="14" lengthAdjust="spacing" textLength="267" x="1206.5" y="778.4495">configure_optimizers() -&gt; Dict[str, Any]</text><text fill="#000000" font-family="sans-serif" font-size="14" lengthAdjust="spacing" textLength="280" x="1206.5" y="794.7464">forward(x: torch.Tensor) -&gt; torch.Tensor</text><text fill="#000000" font-family="sans-serif" font-size="14" lengthAdjust="spacing" textLength="472" x="1206.5" y="811.0432">loss_function(y_pred: torch.Tensor, y: torch.Tensor) -&gt; torch.Tensor</text><text fill="#000000" font-family="sans-serif" font-size="14" lengthAdjust="spacing" textLength="595" x="1206.5" y="827.3401">training_step(batch: Tuple[torch.Tensor, torch.Tensor], batch_idx: int) -&gt; torch.Tensor</text><text fill="#000000" font-family="sans-serif" font-size="14" lengthAdjust="spacing" textLength="556" x="1206.5" y="843.637">validation_step(batch: Tuple[torch.Tensor, torch.Tensor], batch_idx: int) -&gt; None</text></g><!--class src.dl_solver.dl_solver.config.MLflowConfig--><g id="elem_src.dl_solver.dl_solver.config.MLflowConfig"><rect codeLine="71" fill="#F1F1F1" height="96.8906" id="src.dl_solver.dl_solver.config.MLflowConfig" rx="2.5" ry="2.5" style="stroke:#181818;stroke-width:0.5;" width="368" x="1747" y="55.89"/><ellipse cx="1881.75" cy="71.89" fill="#ADD1B2" rx="11" ry="11" style="stroke:#181818;stroke-width:1.0;"/><path d="M1884.7188,77.5306 Q1884.1406,77.8275 1883.5,77.9681 Q1882.8594,78.1244 1882.1563,78.1244 Q1879.6563,78.1244 1878.3281,76.4837 Q1877.0156,74.8275 1877.0156,71.7025 Q1877.0156,68.5775 1878.3281,66.9212 Q1879.6563,65.265 1882.1563,65.265 Q1882.8594,65.265 1883.5,65.4212 Q1884.1563,65.5775 1884.7188,65.8744 L1884.7188,68.5931 Q1884.0938,68.015 1883.5,67.7494 Q1882.9063,67.4681 1882.2813,67.4681 Q1880.9375,67.4681 1880.25,68.5462 Q1879.5625,69.6087 1879.5625,71.7025 Q1879.5625,73.7962 1880.25,74.8744 Q1880.9375,75.9369 1882.2813,75.9369 Q1882.9063,75.9369 1883.5,75.6712 Q1884.0938,75.39 1884.7188,74.8119 L1884.7188,77.5306 Z " fill="#000000"/><text fill="#000000" font-family="sans-serif" font-size="14" lengthAdjust="spacing" textLength="90" x="1902.25" y="76.7367">MLflowConfig</text><line style="stroke:#181818;stroke-width:0.5;" x1="1748" x2="2114" y1="87.89" y2="87.89"/><text fill="#000000" font-family="sans-serif" font-size="14" lengthAdjust="spacing" textLength="155" x="1753" y="104.8851">experiment_name : str</text><text fill="#000000" font-family="sans-serif" font-size="14" lengthAdjust="spacing" textLength="100" x="1753" y="121.182">run_name : str</text><line style="stroke:#181818;stroke-width:0.5;" x1="1748" x2="2114" y1="128.4838" y2="128.4838"/><text fill="#000000" font-family="sans-serif" font-size="14" lengthAdjust="spacing" textLength="356" x="1753" y="145.4789">experiment_id : Annotated[str, Field(default=None)]</text></g><!--class src.dl_solver.dl_solver.config.Paths--><g id="elem_src.dl_solver.dl_solver.config.Paths"><rect codeLine="76" fill="#F1F1F1" height="145.7813" id="src.dl_solver.dl_solver.config.Paths" rx="2.5" ry="2.5" style="stroke:#181818;stroke-width:0.5;" width="702" x="2150" y="31.44"/><ellipse cx="2477.25" cy="47.44" fill="#ADD1B2" rx="11" ry="11" style="stroke:#181818;stroke-width:1.0;"/><path d="M2480.2188,53.0806 Q2479.6406,53.3775 2479,53.5181 Q2478.3594,53.6744 2477.6563,53.6744 Q2475.1563,53.6744 2473.8281,52.0338 Q2472.5156,50.3775 2472.5156,47.2525 Q2472.5156,44.1275 2473.8281,42.4713 Q2475.1563,40.815 2477.6563,40.815 Q2478.3594,40.815 2479,40.9713 Q2479.6563,41.1275 2480.2188,41.4244 L2480.2188,44.1431 Q2479.5938,43.565 2479,43.2994 Q2478.4063,43.0181 2477.7813,43.0181 Q2476.4375,43.0181 2475.75,44.0963 Q2475.0625,45.1588 2475.0625,47.2525 Q2475.0625,49.3463 2475.75,50.4244 Q2476.4375,51.4869 2477.7813,51.4869 Q2478.4063,51.4869 2479,51.2213 Q2479.5938,50.94 2480.2188,50.3619 L2480.2188,53.0806 Z " fill="#000000"/><text fill="#000000" font-family="sans-serif" font-size="14" lengthAdjust="spacing" textLength="39" x="2497.75" y="52.2867">Paths</text><line style="stroke:#181818;stroke-width:0.5;" x1="2151" x2="2851" y1="63.44" y2="63.44"/><text fill="#000000" font-family="sans-serif" font-size="14" lengthAdjust="spacing" textLength="72" x="2156" y="80.4351">root : Path</text><line style="stroke:#181818;stroke-width:0.5;" x1="2151" x2="2851" y1="87.7369" y2="87.7369"/><text fill="#000000" font-family="sans-serif" font-size="14" lengthAdjust="spacing" textLength="679" x="2156" y="104.732">checkpoints : Annotated[Path, Field(default='src/solver/.logs/checkpoints', validate_default=True)]</text><text fill="#000000" font-family="sans-serif" font-size="14" lengthAdjust="spacing" textLength="592" x="2156" y="121.0289">imagenet_dir : Annotated[Path, Field(default='.data/imagenet', validate_default=True)]</text><text fill="#000000" font-family="sans-serif" font-size="14" lengthAdjust="spacing" textLength="546" x="2156" y="137.3257">jigsaw_dir : Annotated[Path, Field(default='.data/jigsaw', validate_default=True)]</text><text fill="#000000" font-family="sans-serif" font-size="14" lengthAdjust="spacing" textLength="690" x="2156" y="153.6226">mlflow_uri : Annotated[str, Field(default='src/solver/.logs/mlflow_logs/mlflow', validate_default=True)]</text><text fill="#000000" font-family="sans-serif" font-size="14" lengthAdjust="spacing" textLength="609" x="2156" y="169.9195">tb_logs : Annotated[Path, Field(default='src/solver/.logs/tb_logs', validate_default=True)]</text></g><!--class src.dl_solver.dl_solver.config.PiecemakerConfig--><g id="elem_src.dl_solver.dl_solver.config.PiecemakerConfig"><rect codeLine="84" fill="#F1F1F1" height="194.6719" id="src.dl_solver.dl_solver.config.PiecemakerConfig" rx="2.5" ry="2.5" style="stroke:#181818;stroke-width:0.5;" width="361" x="1350.5" y="7"/><ellipse cx="1464.25" cy="23" fill="#ADD1B2" rx="11" ry="11" style="stroke:#181818;stroke-width:1.0;"/><path d="M1467.2188,28.6406 Q1466.6406,28.9375 1466,29.0781 Q1465.3594,29.2344 1464.6563,29.2344 Q1462.1563,29.2344 1460.8281,27.5938 Q1459.5156,25.9375 1459.5156,22.8125 Q1459.5156,19.6875 1460.8281,18.0313 Q1462.1563,16.375 1464.6563,16.375 Q1465.3594,16.375 1466,16.5313 Q1466.6563,16.6875 1467.2188,16.9844 L1467.2188,19.7031 Q1466.5938,19.125 1466,18.8594 Q1465.4063,18.5781 1464.7813,18.5781 Q1463.4375,18.5781 1462.75,19.6563 Q1462.0625,20.7188 1462.0625,22.8125 Q1462.0625,24.9063 1462.75,25.9844 Q1463.4375,27.0469 1464.7813,27.0469 Q1465.4063,27.0469 1466,26.7813 Q1466.5938,26.5 1467.2188,25.9219 L1467.2188,28.6406 Z " fill="#000000"/><text fill="#000000" font-family="sans-serif" font-size="14" lengthAdjust="spacing" textLength="125" x="1484.75" y="27.8467">PiecemakerConfig</text><line style="stroke:#181818;stroke-width:0.5;" x1="1351.5" x2="1710.5" y1="39" y2="39"/><text fill="#000000" font-family="sans-serif" font-size="14" lengthAdjust="spacing" textLength="69" x="1356.5" y="55.9951">gap : bool</text><text fill="#000000" font-family="sans-serif" font-size="14" lengthAdjust="spacing" textLength="110" x="1356.5" y="72.292">jigsaw_dir : Path</text><text fill="#000000" font-family="sans-serif" font-size="14" lengthAdjust="spacing" textLength="176" x="1356.5" y="88.5889">maximum_piece_size : int</text><text fill="#000000" font-family="sans-serif" font-size="14" lengthAdjust="spacing" textLength="173" x="1356.5" y="104.8857">minimum_piece_size : int</text><text fill="#000000" font-family="sans-serif" font-size="14" lengthAdjust="spacing" textLength="157" x="1356.5" y="121.1826">number_of_pieces : int</text><text fill="#000000" font-family="sans-serif" font-size="14" lengthAdjust="spacing" textLength="151" x="1356.5" y="137.4795">scaled_sizes : List[int]</text><text fill="#000000" font-family="sans-serif" font-size="14" lengthAdjust="spacing" textLength="232" x="1356.5" y="153.7764">stochastic_nubs_probability : float</text><text fill="#000000" font-family="sans-serif" font-size="14" lengthAdjust="spacing" textLength="139" x="1356.5" y="170.0732">use_max_size : bool</text><text fill="#000000" font-family="sans-serif" font-size="14" lengthAdjust="spacing" textLength="349" x="1356.5" y="186.3701">variant : Literal['interlockingnubs', 'stochasticnubs']</text><line style="stroke:#181818;stroke-width:0.5;" x1="1351.5" x2="1710.5" y1="193.6719" y2="193.6719"/></g><!--class src.dl_solver.dl_solver.album_transforms.RotateAndRecord--><g id="elem_src.dl_solver.dl_solver.album_transforms.RotateAndRecord"><rect codeLine="95" fill="#F1F1F1" height="129.4844" id="src.dl_solver.dl_solver.album_transforms.RotateAndRecord" rx="2.5" ry="2.5" style="stroke:#181818;stroke-width:0.5;" width="330" x="2887" y="39.59"/><ellipse cx="2986.25" cy="55.59" fill="#ADD1B2" rx="11" ry="11" style="stroke:#181818;stroke-width:1.0;"/><path d="M2989.2188,61.2306 Q2988.6406,61.5275 2988,61.6681 Q2987.3594,61.8244 2986.6563,61.8244 Q2984.1563,61.8244 2982.8281,60.1838 Q2981.5156,58.5275 2981.5156,55.4025 Q2981.5156,52.2775 2982.8281,50.6213 Q2984.1563,48.965 2986.6563,48.965 Q2987.3594,48.965 2988,49.1213 Q2988.6563,49.2775 2989.2188,49.5744 L2989.2188,52.2931 Q2988.5938,51.715 2988,51.4494 Q2987.4063,51.1681 2986.7813,51.1681 Q2985.4375,51.1681 2984.75,52.2463 Q2984.0625,53.3088 2984.0625,55.4025 Q2984.0625,57.4963 2984.75,58.5744 Q2985.4375,59.6369 2986.7813,59.6369 Q2987.4063,59.6369 2988,59.3713 Q2988.5938,59.09 2989.2188,58.5119 L2989.2188,61.2306 Z " fill="#000000"/><text fill="#000000" font-family="sans-serif" font-size="14" lengthAdjust="spacing" textLength="123" x="3006.75" y="60.4367">RotateAndRecord</text><line style="stroke:#181818;stroke-width:0.5;" x1="2888" x2="3216" y1="71.59" y2="71.59"/><text fill="#000000" font-family="sans-serif" font-size="14" lengthAdjust="spacing" textLength="82" x="2893" y="88.5851">local : _local</text><line style="stroke:#181818;stroke-width:0.5;" x1="2888" x2="3216" y1="95.8869" y2="95.8869"/><text fill="#000000" font-family="sans-serif" font-size="14" lengthAdjust="spacing" textLength="318" x="2893" y="112.882">apply(img: np.ndarray[np.uint8]) -&gt; np.ndarray</text><text fill="#000000" font-family="sans-serif" font-size="14" lengthAdjust="spacing" textLength="150" x="2893" y="129.1789">get_applied_rotation()</text><text fill="#000000" font-family="sans-serif" font-size="14" lengthAdjust="spacing" textLength="307" x="2893" y="145.4757">get_params_dependent_on_targets(params)</text><text fill="#000000" font-family="sans-serif" font-size="14" lengthAdjust="spacing" textLength="224" x="2893" y="161.7726">get_transform_init_args_names()</text></g><!--class src.dl_solver.dl_solver.config.YamlBaseModel--><g id="elem_src.dl_solver.dl_solver.config.YamlBaseModel"><rect codeLine="102" fill="#F1F1F1" height="80.5938" id="src.dl_solver.dl_solver.config.YamlBaseModel" rx="2.5" ry="2.5" style="stroke:#181818;stroke-width:0.5;" width="226" x="2056" y="705.16"/><ellipse cx="2109.75" cy="721.16" fill="#ADD1B2" rx="11" ry="11" style="stroke:#181818;stroke-width:1.0;"/><path d="M2112.7188,726.8006 Q2112.1406,727.0975 2111.5,727.2381 Q2110.8594,727.3944 2110.1563,727.3944 Q2107.6563,727.3944 2106.3281,725.7538 Q2105.0156,724.0975 2105.0156,720.9725 Q2105.0156,717.8475 2106.3281,716.1913 Q2107.6563,714.535 2110.1563,714.535 Q2110.8594,714.535 2111.5,714.6913 Q2112.1563,714.8475 2112.7188,715.1444 L2112.7188,717.8631 Q2112.0938,717.285 2111.5,717.0194 Q2110.9063,716.7381 2110.2813,716.7381 Q2108.9375,716.7381 2108.25,717.8163 Q2107.5625,718.8788 2107.5625,720.9725 Q2107.5625,723.0663 2108.25,724.1444 Q2108.9375,725.2069 2110.2813,725.2069 Q2110.9063,725.2069 2111.5,724.9413 Q2112.0938,724.66 2112.7188,724.0819 L2112.7188,726.8006 Z " fill="#000000"/><text fill="#000000" font-family="sans-serif" font-size="14" lengthAdjust="spacing" textLength="110" x="2130.25" y="726.0067">YamlBaseModel</text><line style="stroke:#181818;stroke-width:0.5;" x1="2057" x2="2281" y1="737.16" y2="737.16"/><line style="stroke:#181818;stroke-width:0.5;" x1="2057" x2="2281" y1="745.16" y2="745.16"/><text fill="#000000" font-family="sans-serif" font-size="14" lengthAdjust="spacing" textLength="203" x="2062" y="762.1551">from_yaml(file: Path | str) -&gt; T</text><text fill="#000000" font-family="sans-serif" font-size="14" lengthAdjust="spacing" textLength="214" x="2062" y="778.452">to_yaml(file: Path | str) -&gt; None</text></g><!--link src.dl_solver.dl_solver.config.Config to src.dl_solver.dl_solver.config.YamlBaseModel--><g id="link_src.dl_solver.dl_solver.config.Config_src.dl_solver.dl_solver.config.YamlBaseModel"><path codeLine="106" d="M1926.18,555.12 C1995.78,609.39 2056.2257,656.521 2104.0957,693.851 " fill="none" id="src.dl_solver.dl_solver.config.Config-to-src.dl_solver.dl_solver.config.YamlBaseModel" style="stroke:#181818;stroke-width:1.0;"/><polygon fill="none" points="2118.29,704.92,2107.7854,689.1196,2100.4061,698.5824,2118.29,704.92" style="stroke:#181818;stroke-width:1.0;"/></g><!--link src.dl_solver.dl_solver.config.HyperParameters to src.dl_solver.dl_solver.config.YamlBaseModel--><g id="link_src.dl_solver.dl_solver.config.HyperParameters_src.dl_solver.dl_solver.config.YamlBaseModel"><path codeLine="107" d="M1081.9,498.21 C1102.31,520.09 1126.9,541.42 1154,554.82 C1221.27,588.09 1751.69,615.79 1825,631.82 C1907.72,649.92 1981.7555,674.0138 2049.3455,698.6138 " fill="none" id="src.dl_solver.dl_solver.config.HyperParameters-to-src.dl_solver.dl_solver.config.YamlBaseModel" style="stroke:#181818;stroke-width:1.0;"/><polygon fill="none" points="2066.26,704.77,2051.3975,692.9756,2047.2934,704.252,2066.26,704.77" style="stroke:#181818;stroke-width:1.0;"/></g><!--link src.dl_solver.dl_solver.config.MLflowConfig to src.dl_solver.dl_solver.config.YamlBaseModel--><g id="link_src.dl_solver.dl_solver.config.MLflowConfig_src.dl_solver.dl_solver.config.YamlBaseModel"><path codeLine="108" d="M2026.46,153.22 C2059.84,169.33 2097.78,186.95 2133,201.67 C2225.87,240.49 2288.17,196.27 2346,278.67 C2416.51,379.13 2391.01,440.64 2346,554.82 C2321.56,616.83 2280.2113,659.1955 2237.8713,693.4655 " fill="none" id="src.dl_solver.dl_solver.config.MLflowConfig-to-src.dl_solver.dl_solver.config.YamlBaseModel" style="stroke:#181818;stroke-width:1.0;"/><polygon fill="none" points="2223.88,704.79,2241.6461,698.1292,2234.0964,688.8017,2223.88,704.79" style="stroke:#181818;stroke-width:1.0;"/></g><!--link src.dl_solver.dl_solver.config.Paths to src.dl_solver.dl_solver.config.YamlBaseModel--><g id="link_src.dl_solver.dl_solver.config.Paths_src.dl_solver.dl_solver.config.YamlBaseModel"><path codeLine="109" d="M2494.39,177.54 C2483.62,269.55 2456.69,431.45 2393,554.82 C2359.34,620.02 2307.8733,662.2336 2255.9833,695.1236 " fill="none" id="src.dl_solver.dl_solver.config.Paths-to-src.dl_solver.dl_solver.config.YamlBaseModel" style="stroke:#181818;stroke-width:1.0;"/><polygon fill="none" points="2240.78,704.76,2259.1954,700.1913,2252.7711,690.0558,2240.78,704.76" style="stroke:#181818;stroke-width:1.0;"/></g><!--link src.dl_solver.dl_solver.album_transforms.AlbumTransforms to src.dl_solver.dl_solver.jigsaw_dataset.JigsawDataset--><g id="link_src.dl_solver.dl_solver.album_transforms.AlbumTransforms_src.dl_solver.dl_solver.jigsaw_dataset.JigsawDataset"><path codeLine="110" d="M704.85,144.96 C660.45,180.76 601.9318,227.938 538.8018,278.838 " fill="none" id="src.dl_solver.dl_solver.album_transforms.AlbumTransforms-to-src.dl_solver.dl_solver.jigsaw_dataset.JigsawDataset" style="stroke:#181818;stroke-width:1.0;"/><polygon fill="#181818" points="529.46,286.37,536.6416,285.7179,538.8018,278.838,531.6202,279.4901,529.46,286.37" style="stroke:#181818;stroke-width:1.0;"/><text fill="#000000" font-family="sans-serif" font-size="13" lengthAdjust="spacing" textLength="70" x="596" y="244.7369">transforms</text></g><!--link src.dl_solver.dl_solver.album_transforms.AlbumTransforms to src.dl_solver.dl_solver.lit_datamodule.LitJigsawDatamodule--><g id="link_src.dl_solver.dl_solver.album_transforms.AlbumTransforms_src.dl_solver.dl_solver.lit_datamodule.LitJigsawDatamodule"><path codeLine="111" d="M754.88,145.06 C756.32,223.49 758.19,403.7 749,554.82 C747.49,579.7 746.3227,594.4077 743.6327,619.6277 " fill="none" id="src.dl_solver.dl_solver.album_transforms.AlbumTransforms-to-src.dl_solver.dl_solver.lit_datamodule.LitJigsawDatamodule" style="stroke:#181818;stroke-width:1.0;"/><polygon fill="#181818" points="742.36,631.56,746.9738,626.0181,743.6327,619.6277,739.0189,625.1696,742.36,631.56" style="stroke:#181818;stroke-width:1.0;"/><text fill="#000000" font-family="sans-serif" font-size="13" lengthAdjust="spacing" textLength="70" x="757" y="421.3169">transforms</text></g><!--link src.dl_solver.dl_solver.config.Config to src.dl_solver.dl_solver.lit_datamodule.LitJigsawDatamodule--><g id="link_src.dl_solver.dl_solver.config.Config_src.dl_solver.dl_solver.lit_datamodule.LitJigsawDatamodule"><path codeLine="112" d="M1340.81,555.28 C1292.4,571.16 1243.64,586.97 1197,601.82 C1078,639.72 952.8085,677.607 857.8185,705.967 " fill="none" id="src.dl_solver.dl_solver.config.Config-to-src.dl_solver.dl_solver.lit_datamodule.LitJigsawDatamodule" style="stroke:#181818;stroke-width:1.0;"/><polygon fill="#181818" points="846.32,709.4,853.2136,711.5163,857.8185,705.967,850.9249,703.8507,846.32,709.4" style="stroke:#181818;stroke-width:1.0;"/><text fill="#000000" font-family="sans-serif" font-size="13" lengthAdjust="spacing" textLength="38" x="1242" y="597.8869">config</text></g><!--link src.dl_solver.dl_solver.config.Config to src.dl_solver.dl_solver.lit_module.LitJigsawModule--><g id="link_src.dl_solver.dl_solver.config.Config_src.dl_solver.dl_solver.lit_module.LitJigsawModule"><path codeLine="113" d="M1646.74,554.88 C1625.31,583.34 1610.2776,603.3132 1589.8976,630.3832 " fill="none" id="src.dl_solver.dl_solver.config.Config-to-src.dl_solver.dl_solver.lit_module.LitJigsawModule" style="stroke:#181818;stroke-width:1.0;"/><polygon fill="#181818" points="1582.68,639.97,1589.4844,637.5824,1589.8976,630.3832,1583.0932,632.7707,1582.68,639.97" style="stroke:#181818;stroke-width:1.0;"/><text fill="#000000" font-family="sans-serif" font-size="13" lengthAdjust="spacing" textLength="38" x="1620" y="597.8869">config</text></g><!--link src.dl_solver.dl_solver.config.HyperParameters to src.dl_solver.dl_solver.lit_datamodule.LitJigsawDatamodule--><g id="link_src.dl_solver.dl_solver.config.HyperParameters_src.dl_solver.dl_solver.lit_datamodule.LitJigsawDatamodule"><path codeLine="114" d="M949.7,498.09 C913.57,538.24 877.2663,578.5794 837.7763,622.4694 " fill="none" id="src.dl_solver.dl_solver.config.HyperParameters-to-src.dl_solver.dl_solver.lit_datamodule.LitJigsawDatamodule" style="stroke:#181818;stroke-width:1.0;"/><polygon fill="#181818" points="829.75,631.39,836.7367,629.6051,837.7763,622.4694,830.7896,624.2542,829.75,631.39" style="stroke:#181818;stroke-width:1.0;"/><text fill="#000000" font-family="sans-serif" font-size="13" lengthAdjust="spacing" textLength="57" x="867" y="597.8869">hparams</text></g><!--link src.dl_solver.dl_solver.config.HyperParameters to src.dl_solver.dl_solver.lit_module.LitJigsawModule--><g id="link_src.dl_solver.dl_solver.config.HyperParameters_src.dl_solver.dl_solver.lit_module.LitJigsawModule"><path codeLine="115" d="M1056.22,498.19 C1074.81,533.94 1100.84,574.12 1134,601.82 C1154.21,618.71 1166.2009,627.8117 1189.7309,641.1517 " fill="none" id="src.dl_solver.dl_solver.config.HyperParameters-to-src.dl_solver.dl_solver.lit_module.LitJigsawModule" style="stroke:#181818;stroke-width:1.0;"/><polygon fill="#181818" points="1200.17,647.07,1196.9232,640.6312,1189.7309,641.1517,1192.9777,647.5905,1200.17,647.07" style="stroke:#181818;stroke-width:1.0;"/><text fill="#000000" font-family="sans-serif" font-size="13" lengthAdjust="spacing" textLength="57" x="1135" y="597.8869">hparams</text></g><!--link src.dl_solver.dl_solver.config.MLflowConfig to src.dl_solver.dl_solver.config.Config--><g id="link_src.dl_solver.dl_solver.config.MLflowConfig_src.dl_solver.dl_solver.config.Config"><path codeLine="116" d="M1903.12,153.15 C1883.53,186.74 1862.3147,223.1236 1836.2147,267.8836 " fill="none" id="src.dl_solver.dl_solver.config.MLflowConfig-to-src.dl_solver.dl_solver.config.Config" style="stroke:#181818;stroke-width:1.0;"/><polygon fill="#181818" points="1830.17,278.25,1836.6478,275.0817,1836.2147,267.8836,1829.7369,271.0519,1830.17,278.25" style="stroke:#181818;stroke-width:1.0;"/><text fill="#000000" font-family="sans-serif" font-size="13" lengthAdjust="spacing" textLength="85" x="1857" y="244.7369">mlflow_config</text></g><!--link src.dl_solver.dl_solver.config.Paths to src.dl_solver.dl_solver.config.Config--><g id="link_src.dl_solver.dl_solver.config.Paths_src.dl_solver.dl_solver.config.Config"><path codeLine="117" d="M2325.87,177.72 C2253.27,207.73 2177.6302,238.9966 2093.7902,273.6466 " fill="none" id="src.dl_solver.dl_solver.config.Paths-to-src.dl_solver.dl_solver.config.Config" style="stroke:#181818;stroke-width:1.0;"/><polygon fill="#181818" points="2082.7,278.23,2089.7729,279.635,2093.7902,273.6466,2086.7173,272.2416,2082.7,278.23" style="stroke:#181818;stroke-width:1.0;"/><text fill="#000000" font-family="sans-serif" font-size="13" lengthAdjust="spacing" textLength="36" x="2193" y="244.7369">paths</text></g><!--link src.dl_solver.dl_solver.config.PiecemakerConfig to src.dl_solver.dl_solver.config.Config--><g id="link_src.dl_solver.dl_solver.config.PiecemakerConfig_src.dl_solver.dl_solver.config.Config"><path codeLine="118" d="M1599.09,201.85 C1616.17,226.05 1627.9017,242.685 1646.0917,268.465 " fill="none" id="src.dl_solver.dl_solver.config.PiecemakerConfig-to-src.dl_solver.dl_solver.config.Config" style="stroke:#181818;stroke-width:1.0;"/><polygon fill="#181818" points="1653.01,278.27,1652.8192,271.0614,1646.0917,268.465,1646.2825,275.6736,1653.01,278.27" style="stroke:#181818;stroke-width:1.0;"/><text fill="#000000" font-family="sans-serif" font-size="13" lengthAdjust="spacing" textLength="120" x="1628" y="244.7369">piecemaker_config</text></g><!--link src.dl_solver.dl_solver.jigsaw_dataset.JigsawDataset to src.dl_solver.dl_solver.lit_datamodule.LitJigsawDatamodule--><g id="link_src.dl_solver.dl_solver.jigsaw_dataset.JigsawDataset_src.dl_solver.dl_solver.lit_datamodule.LitJigsawDatamodule"><path codeLine="119" d="M480.43,547.11 C498.42,566.05 517.3,584.87 536,601.82 C558.84,622.53 575.0213,635.9885 600.0613,654.9385 " fill="none" id="src.dl_solver.dl_solver.jigsaw_dataset.JigsawDataset-to-src.dl_solver.dl_solver.lit_datamodule.LitJigsawDatamodule" style="stroke:#181818;stroke-width:1.0;"/><polygon fill="#181818" points="609.63,662.18,607.2595,655.3697,600.0613,654.9385,602.4318,661.7488,609.63,662.18" style="stroke:#181818;stroke-width:1.0;"/><text fill="#000000" font-family="sans-serif" font-size="13" lengthAdjust="spacing" textLength="74" x="537" y="597.8869">jigsaw_train</text></g><!--link src.dl_solver.dl_solver.jigsaw_dataset.JigsawDataset to src.dl_solver.dl_solver.lit_datamodule.LitJigsawDatamodule--><g id="link_src.dl_solver.dl_solver.jigsaw_dataset.JigsawDataset_src.dl_solver.dl_solver.lit_datamodule.LitJigsawDatamodule"><path codeLine="120" d="M573.59,547.15 C588.47,559.24 602.8,571.85 616,584.82 C630.36,598.95 636.8117,605.5969 649.4417,622.1169 " fill="none" id="src.dl_solver.dl_solver.jigsaw_dataset.JigsawDataset-to-src.dl_solver.dl_solver.lit_datamodule.LitJigsawDatamodule-1" style="stroke:#181818;stroke-width:1.0;"/><polygon fill="#181818" points="656.73,631.65,656.2635,624.454,649.4417,622.1169,649.9081,629.3129,656.73,631.65" style="stroke:#181818;stroke-width:1.0;"/><text fill="#000000" font-family="sans-serif" font-size="13" lengthAdjust="spacing" textLength="63" x="631" y="597.8869">jigsaw_val</text></g><!--link src.dl_solver.dl_solver.jigsaw_dataset.JigsawDataset to src.dl_solver.dl_solver.lit_datamodule.LitJigsawDatamodule--><g id="link_src.dl_solver.dl_solver.jigsaw_dataset.JigsawDataset_src.dl_solver.dl_solver.lit_datamodule.LitJigsawDatamodule"><path codeLine="121" d="M406.16,547.14 C415.68,566.93 427.47,586 442,601.82 C487.04,650.86 541.5409,680.8318 598.5909,703.5418 " fill="none" id="src.dl_solver.dl_solver.jigsaw_dataset.JigsawDataset-to-src.dl_solver.dl_solver.lit_datamodule.LitJigsawDatamodule-2" style="stroke:#181818;stroke-width:1.0;"/><polygon fill="#181818" points="609.74,707.98,605.6448,702.0446,598.5909,703.5418,602.6861,709.4773,609.74,707.98" style="stroke:#181818;stroke-width:1.0;"/><text fill="#000000" font-family="sans-serif" font-size="13" lengthAdjust="spacing" textLength="70" x="443" y="597.8869">jigsaw_test</text></g><!--SRC=[nHZRJkGsz7s_8jeNmceONYkahWHxwKNCbiAyL0XPPn9FniMnBTi1GhV_tdFiJ6wmGrYezcdYutE_UnptYOAIEmCPl-06B7Xj4wKLVvD9S2vvUonNLRcqeDnQszAzJS0bpcRpN3AdvGstlIyWNEPRvFc8EFddJPBWjL0CggBaoeCNMhdaAFcWIwCTZ_TRzAFad1i9zVRotwrI7xHQYsAdBbb0cKVC81WoBsuuoq3A5MJNnFwZoFpbgV3SWhpSM-YSomyRdbqRBPJVcoLxopy_BiwiBYntxWGiWJw1bVM5ryO8LH3W17oskH3t_BDGEGyuVnXVAJYpbMfmJZbO-Zu7pnTQ2VGoWOF4YweimTPxLxDafRMyGbNNLfSCrV2e8_927w5-pbkw4uxbV5KLU4Ne4R86vn5ymr3auA8mrU1SLj8BOtKsWEgWRmSguOvnexCDEGbTGI2vblgMHRVYMM6aRxMzvjRrbKHaKjA0tpZw5JpZ9I1MHub-OoKljQqxWHYn5KPu2sW3_Mjjk3t3j2mv1ibDYVY898H-HI5Y3cFKsYERY31CUOAYTU0RkqQcc-h-NdBcDc08SraPoSdGMT9OQtLCP2QrS-oMYsBZUomT3xc-Wq4amG1cKBU4hHD-5uM3su_WmN6_qmL_1qoMHzJvW30uuhV5Bry-BTd5ydXvWO9op7-4Pkw6hGMQI673SqFFSc4HwQm1hgbWyEOpkPQIL4XqCC_PWnlCg53bNNoVTA4pKf3Fsc8C3AX6Ra3IZ-VExrqD-WCU2jIIadNWudG_ENZ_Y8o0ZCat2Tb8ZHXG8ZmL-TqenMSninq3bJC9AovT3oDomnhFDlCbLqxRMT8_NLq5eL-epQBfW5qfNwSTh8qyUgEBOQdpIlATyKSVXk17rFaZv24BsbBSKCSFZcmoXxpSEr4CkYD6Okn_Osbey20q7HZ5VMLIvw7WenQsJpouYufYecFBZ9Iav6aujrDY9mggimlXeHCNqnmuTjxY4STbbYeTayXgKuUonzoDY0EtbjJW-rUbum_G8zSAtOXzM9JOfQnhpA7vX4wR9SUg3eD1srkmUOhvs4-eWDm7K8CZ3TULoiZtQSqmLFcGQfRKJxC9WQ0-wJmtQMYas_hTaU2pfkM6oi62UOmpna_aiM- -dFUmRXQdDAocRmbz_11eVeT3H8Gk8NACrR5IrEDv7gFnMN2PfpbV0uxJdqds_jMGYhOgf4DicW-LwWDQDQcpJfff0J5cOBkUk85QX37MQm-v7aP6XtEf2tVOeyQUsWG0gxSXMDeg6Y9Ah5lLJe0dnCof2W-tD3iPRmVKTBQHOYVJPZMfh7WgKWyzqj3sldUAibhxRYJwLI3yZa0qb3jaTKdIhb3JytbC4rAd0DCDv44W6dDma8eIrvymseRR4exDRrtXmhJ2zKwlusMtDZdSj74x86GN9hlps_NGULomS6KL6LFLoc5lqYjO2Uo-TMzlgh1NXk4UnMrNHR02r61NGAxSIfrTOvyYVhGlT282fEVGyn2fOvMVyqpR_7alcX5nS2nA1choB7pGIyCOMQUYB8uIPUOg1skXliJF2ZNzAGx_xgBPJ8X8eB-sosIwtrp4OOBvOJY-Bx2tOCFqOF7AfV5kYzdgoJ1SoD4MBlGTd2QT-Nz1AKzmlGjlZod9D2081eVdIOtWbBR6c3_9L-fjSPcYqj0x49fcFUtfTd3mzVspL7ppp0V2gmiOJ9DNvnvdmUknVVBHVd3mxliU74VzNV5_4JzXtvsan3ZZNYYnMHDVHzetrj6fKXvc-mkDsowthoptcsPEb3SgkdSJ_nWw6lsnCR7ufhEF_uGyTru_IyA3_rY-grfVd1Y3H-CFLO4UgZ_M1_Y-_Gy0]--></g></svg>