<svg xmlns="http://www.w3.org/2000/svg" version="1.0" width="100mm" height="100mm" viewBox="0 0 100 100"><path fill="none" stroke="DarkBlue" stroke-width="0.1" d="M 0,33.33 C 6.67 33.33 16.67 36.9 13.1 29.77 C 9.53 22.63 23.8 22.63 20.23 29.77 C 16.67 36.9 26.67 33.33 33.33 33.33 C 40 33.33 50 36.9 46.43 29.77 C 42.87 22.63 57.13 22.63 53.57 29.77 C 50 36.9 60 33.33 66.67 33.33 C 73.33 33.33 83.33 29.77 79.77 36.9 C 76.2 44.03 90.47 44.03 86.9 36.9 C 83.33 29.77 93.33 33.33 100 33.33 M 0,66.67 C 6.67 66.67 16.67 63.1 13.1 70.23 C 9.53 77.37 23.8 77.37 20.23 70.23 C 16.67 63.1 26.67 66.67 33.33 66.67 C 40 66.67 50 70.23 46.43 63.1 C 42.87 55.97 57.13 55.97 53.57 63.1 C 50 70.23 60 66.67 66.67 66.67 C 73.33 66.67 83.33 63.1 79.77 70.23 C 76.2 77.37 90.47 77.37 86.9 70.23 C 83.33 63.1 93.33 66.67 100 66.67 "></path><path fill="none" stroke="DarkRed" stroke-width="0.1" d="M 33.33,0 C 33.33 6.67 29.77 16.67 36.9 13.1 C 44.03 9.53 44.03 23.8 36.9 20.23 C 29.77 16.67 33.33 26.67 33.33 33.33 C 33.33 40 29.77 50 36.9 46.43 C 44.03 42.87 44.03 57.13 36.9 53.57 C 29.77 50 33.33 60 33.33 66.67 C 33.33 73.33 29.77 83.33 36.9 79.77 C 44.03 76.2 44.03 90.47 36.9 86.9 C 29.77 83.33 33.33 93.33 33.33 100 M 66.67,0 C 66.67 6.67 63.1 16.67 70.23 13.1 C 77.37 9.53 77.37 23.8 70.23 20.23 C 63.1 16.67 66.67 26.67 66.67 33.33 C 66.67 40 63.1 50 70.23 46.43 C 77.37 42.87 77.37 57.13 70.23 53.57 C 63.1 50 66.67 60 66.67 66.67 C 66.67 73.33 70.23 83.33 63.1 79.77 C 55.97 76.2 55.97 90.47 63.1 86.9 C 70.23 83.33 66.67 93.33 66.67 100 "></path><path fill="none" stroke="Black" stroke-width="0.1" d="M 2 0 L 98 0 A 2 2 0 0 1 100 2 L 100 98 A 2 2 0 0 1 98 100 L 2 100 A 2 2 0 0 1 0 98 L 0 2 A 2 2 0 0 1 2 0 "></path></svg>